<svg id="visual" viewBox="0 0 900 600" width="900" height="600" xmlns="http://www.w3.org/2000/svg" xmlns:xlink="http://www.w3.org/1999/xlink" version="1.1"><g transform="translate(394.85959275900234 235.78167434823703)"><path d="M184.6 -186.1C241.1 -172.6 289.9 -116.2 283.7 -63.1C277.5 -10 216.3 39.8 178.1 100C139.9 160.2 124.9 230.9 77.7 274.7C30.4 318.6 -48.9 335.5 -93.8 300.5C-138.6 265.6 -149 178.8 -154 115.4C-159.1 52 -158.8 12 -165.2 -42.5C-171.5 -97 -184.4 -166.1 -158 -184.9C-131.6 -203.7 -65.8 -172.1 -0.9 -171.1C64.1 -170.1 128.1 -199.6 184.6 -186.1" fill="none" stroke="#FFF" stroke-width="7"></path></g></svg>